# xmcd CD database file
#
# Track frame offsets:
#	150
#	16165
#	36500
#	50330
#	70775
#	88240
#	110942
#	126677
#	143420
#	148100
#
# Disc length: 2247 seconds
#
# Revision: 0
# Processed by: cddbd v1.5.1PL0 Copyright (c) Steve Scherf et al.
# Submitted via: CDex 1.51
#
DISCID=9808c50a
DTITLE=Sebasrockets - Sebasrockets
DYEAR=2005
DGENRE=Rock
TTITLE0=Downtime
TTITLE1=Rock'n'roll Overdose
TTITLE2=Tresspass - Outcast
TTITLE3=Rocketzone
TTITLE4=Enemy
TTITLE5=D.O.A.
TTITLE6=Queen Of The Nite
TTITLE7=Electric Youth
TTITLE8=Losin' Streak
TTITLE9=Strung Out In The City
EXTD=YEAR: 2005
EXTT0=
EXTT1=
EXTT2=
EXTT3=
EXTT4=
EXTT5=
EXTT6=
EXTT7=
EXTT8=
EXTT9=
PLAYORDER=
